2015043_C5_05_grf
version=1
nRows=30
nColumns=19
inDegrees=no
endheader
time	ground_force_1_vx	ground_force_1_vy	ground_force_1_vz	ground_force_1_px	ground_force_1_py	ground_force_1_pz	ground_force_1_mx	ground_force_1_my	ground_force_1_mz	ground_force_2_vx	ground_force_2_vy	ground_force_2_vz	ground_force_2_px	ground_force_2_py	ground_force_2_pz	ground_force_2_mx	ground_force_2_my	ground_force_2_mz
      0.83500000	    -44.97290961	    611.60487682	     44.22421865	     -0.11860990	      0.00000000	      0.15198876	      0.00000000	      0.46348284	      0.00000000	      0.00000000	      0.00000000	      0.00000000	      0.00000000	      0.00000000	      0.00000000	      0.00000000	      0.00000000	      0.00000000
      0.83600000	    -44.66197640	    609.73108560	     44.18684244	     -0.11794457	      0.00000000	      0.15178443	      0.00000000	      0.44954172	      0.00000000	      0.00000000	      0.00000000	      0.00000000	      0.00000000	      0.00000000	      0.00000000	      0.00000000	      0.00000000	      0.00000000
      0.83700000	    -44.35542971	    607.89538175	     44.14555989	     -0.11728133	      0.00000000	      0.15158249	      0.00000000	      0.43568409	      0.00000000	      0.00000000	      0.00000000	      0.00000000	      0.00000000	      0.00000000	      0.00000000	      0.00000000	      0.00000000	      0.00000000
      0.83800000	    -44.05223951	    606.09059036	     44.10138279	     -0.11661994	      0.00000000	      0.15138254	      0.00000000	      0.42188361	      0.00000000	      0.00000000	      0.00000000	      0.00000000	      0.00000000	      0.00000000	      0.00000000	      0.00000000	      0.00000000	      0.00000000
      0.83900000	    -43.75305772	    604.32495922	     44.05390434	     -0.11596116	      0.00000000	      0.15118514	      0.00000000	      0.40814097	     -0.00000000	      0.00000000	      0.00000000	      0.00000000	      0.00000000	      0.00000000	      0.00000000	      0.00000000	      0.00000000	      0.00000000
      0.84000000	    -43.45693439	    602.59097815	     44.00404245	     -0.11530465	      0.00000000	      0.15098983	      0.00000000	      0.39443634	      0.00000000	      0.00000000	      0.00000000	      0.00000000	      0.00000000	      0.00000000	      0.00000000	      0.00000000	      0.00000000	      0.00000000
      0.84100000	    -43.16444136	    600.89699551	     43.95151809	     -0.11465124	      0.00000000	      0.15079723	      0.00000000	      0.38076771	      0.00000000	      0.00000000	      0.00000000	      0.00000000	      0.00000000	      0.00000000	      0.00000000	      0.00000000	      0.00000000	      0.00000000
      0.84200000	    -42.87469387	    599.23533350	     43.89714226	     -0.11400052	      0.00000000	      0.15060682	     -0.00000000	      0.36712196	      0.00000000	      0.00000000	      0.00000000	      0.00000000	      0.00000000	      0.00000000	      0.00000000	      0.00000000	      0.00000000	      0.00000000
      0.84300000	    -42.58816689	    597.61434048	     43.84079501	     -0.11335339	      0.00000000	      0.15041920	      0.00000000	      0.35349882	      0.00000000	      0.00000000	      0.00000000	      0.00000000	      0.00000000	      0.00000000	      0.00000000	      0.00000000	      0.00000000	      0.00000000
      0.84400000	    -42.30403900	    596.02607042	     43.78313869	     -0.11270934	      0.00000000	      0.15023382	      0.00000000	      0.33988767	      0.00000000	      0.00000000	      0.00000000	      0.00000000	      0.00000000	      0.00000000	      0.00000000	      0.00000000	      0.00000000	      0.00000000
      0.84500000	    -42.02268086	    594.47887167	     43.72418243	     -0.11206938	      0.00000000	      0.15005125	      0.00000000	      0.32628460	      0.00000000	      0.00000000	      0.00000000	      0.00000000	      0.00000000	      0.00000000	      0.00000000	      0.00000000	      0.00000000	      0.00000000
      0.84600000	    -41.74335673	    592.96466410	     43.66444647	     -0.11143288	      0.00000000	      0.14987092	     -0.00000000	      0.31268258	     -0.00000000	      0.00000000	      0.00000000	      0.00000000	      0.00000000	      0.00000000	      0.00000000	      0.00000000	      0.00000000	      0.00000000
      0.84700000	    -41.46632925	    591.49176255	     43.60404555	     -0.11080094	      0.00000000	      0.14969340	      0.00000000	      0.29907614	     -0.00000000	      0.00000000	      0.00000000	      0.00000000	      0.00000000	      0.00000000	      0.00000000	      0.00000000	      0.00000000	      0.00000000
      0.84800000	    -41.19094089	    590.05191922	     43.54335256	     -0.11017284	      0.00000000	      0.14951812	      0.00000000	      0.28546317	      0.00000000	      0.00000000	      0.00000000	      0.00000000	      0.00000000	      0.00000000	      0.00000000	      0.00000000	      0.00000000	      0.00000000
      0.84900000	    -40.91732949	    588.65324780	     43.48258786	     -0.10954970	      0.00000000	      0.14934563	      0.00000000	      0.27184494	      0.00000000	      0.00000000	      0.00000000	      0.00000000	      0.00000000	      0.00000000	      0.00000000	      0.00000000	      0.00000000	      0.00000000
      0.85000000	    -40.64492509	    587.28736639	     43.42199266	     -0.10893071	      0.00000000	      0.14917535	      0.00000000	      0.25822244	      0.00000000	      0.00000000	      0.00000000	      0.00000000	      0.00000000	      0.00000000	      0.00000000	      0.00000000	      0.00000000	      0.00000000
      0.85100000	    -40.37374817	    585.96212044	     43.36187206	     -0.10831703	      0.00000000	      0.14900782	     -0.00000000	      0.24459813	     -0.00000000	      0.00000000	      0.00000000	      0.00000000	      0.00000000	      0.00000000	      0.00000000	      0.00000000	      0.00000000	      0.00000000
      0.85200000	    -40.10334611	    584.66919512	     43.30231212	     -0.10770777	      0.00000000	      0.14884250	      0.00000000	      0.23097152	      0.00000000	      0.00000000	      0.00000000	      0.00000000	      0.00000000	      0.00000000	      0.00000000	      0.00000000	      0.00000000	      0.00000000
      0.85300000	    -39.83365744	    583.41626823	     43.24366879	     -0.10710418	      0.00000000	      0.14867992	      0.00000000	      0.21734615	      0.00000000	      0.00000000	      0.00000000	      0.00000000	      0.00000000	      0.00000000	      0.00000000	      0.00000000	      0.00000000	      0.00000000
      0.85400000	    -39.56433758	    582.19505847	     43.18591729	     -0.10650524	      0.00000000	      0.14851956	      0.00000000	      0.20372728	      0.00000000	      0.00000000	      0.00000000	      0.00000000	      0.00000000	      0.00000000	      0.00000000	      0.00000000	      0.00000000	      0.00000000
      0.85500000	    -39.29524869	    581.01304248	     43.12944487	     -0.10591226	      0.00000000	      0.14836196	      0.00000000	      0.19011909	     -0.00000000	      0.00000000	      0.00000000	      0.00000000	      0.00000000	      0.00000000	      0.00000000	      0.00000000	      0.00000000	      0.00000000
      0.85600000	    -39.02616352	    579.86207306	     43.07411201	     -0.10532417	      0.00000000	      0.14820656	      0.00000000	      0.17652147	      0.00000000	      0.00000000	      0.00000000	      0.00000000	      0.00000000	      0.00000000	      0.00000000	      0.00000000	      0.00000000	      0.00000000
      0.85700000	    -38.75687532	    578.74935865	     43.02032553	     -0.10474227	      0.00000000	      0.14805387	      0.00000000	      0.16294156	      0.00000000	      0.00000000	      0.00000000	      0.00000000	      0.00000000	      0.00000000	      0.00000000	      0.00000000	      0.00000000	      0.00000000
      0.85800000	    -38.48725930	    577.66688615	     42.96785593	     -0.10416542	      0.00000000	      0.14790337	      0.00000000	      0.14937785	      0.00000000	      0.00000000	      0.00000000	      0.00000000	      0.00000000	      0.00000000	      0.00000000	      0.00000000	      0.00000000	      0.00000000
      0.85900000	    -38.21703047	    576.62162930	     42.91711915	     -0.10359499	      0.00000000	      0.14775563	      0.00000000	      0.13584306	      0.00000000	      0.00000000	      0.00000000	      0.00000000	      0.00000000	      0.00000000	      0.00000000	      0.00000000	      0.00000000	      0.00000000
      0.86000000	    -37.94615716	    575.60560852	     42.86781922	     -0.10302974	      0.00000000	      0.14761010	      0.00000000	      0.12233665	      0.00000000	      0.00000000	      0.00000000	      0.00000000	      0.00000000	      0.00000000	      0.00000000	      0.00000000	      0.00000000	      0.00000000
      0.86100000	    -37.67429106	    574.62569699	     42.82036163	     -0.10247109	      0.00000000	      0.14746740	      0.00000000	      0.10886961	      0.00000000	      0.00000000	      0.00000000	      0.00000000	      0.00000000	      0.00000000	      0.00000000	      0.00000000	      0.00000000	      0.00000000
      0.86200000	    -37.40148619	    573.67401570	     42.77439304	     -0.10191771	      0.00000000	      0.14732696	      0.00000000	      0.09543818	      0.00000000	      0.00000000	      0.00000000	      0.00000000	      0.00000000	      0.00000000	      0.00000000	      0.00000000	      0.00000000	      0.00000000
      0.86300000	    -37.12735139	    572.75723666	     42.73027070	     -0.10137107	      0.00000000	      0.14718945	      0.00000000	      0.08204774	      0.00000000	      0.00000000	      0.00000000	      0.00000000	      0.00000000	      0.00000000	      0.00000000	      0.00000000	      0.00000000	      0.00000000
      0.86400000	    -36.85203567	    571.86781615	     42.68759303	     -0.10082985	      0.00000000	      0.14705430	      0.00000000	      0.06868715	      0.00000000	      0.00000000	      0.00000000	      0.00000000	      0.00000000	      0.00000000	      0.00000000	      0.00000000	      0.00000000	      0.00000000
